<!DOCTYPE svg PUBLIC "-//W3C//DTD SVG 1.1//EN" "http://www.w3.org/Graphics/SVG/1.1/DTD/svg11.dtd">
<!-- Uploaded to: SVG Repo, www.svgrepo.com, Transformed by: SVG Repo Mixer Tools -->
<svg fill="#000000" width="256px" height="256px" viewBox="-1 0 44 44" xmlns="http://www.w3.org/2000/svg">
<g id="SVGRepo_bgCarrier" stroke-width="0"/>
<g id="SVGRepo_tracerCarrier" stroke-linecap="round" stroke-linejoin="round"/>
<g id="SVGRepo_iconCarrier"> <path id="_45.Settings" data-name="45.Settings" d="M35,22H13A10,10,0,0,1,13,2H35a10,10,0,0,1,0,20ZM35,4H13a8,8,0,0,0,0,16H35A8,8,0,0,0,35,4ZM13,18a6,6,0,1,1,6-6A6,6,0,0,1,13,18ZM13,8a4,4,0,1,0,4,4A4,4,0,0,0,13,8Zm0,18H35a10,10,0,0,1,0,20H13a10,10,0,0,1,0-20Zm0,18H35a8,8,0,0,0,0-16H13a8,8,0,0,0,0,16ZM35,30a6,6,0,1,1-6,6A6,6,0,0,1,35,30Zm0,10a4,4,0,1,0-4-4A4,4,0,0,0,35,40Z" transform="translate(-3 -2)" fill-rule="evenodd"/> </g>
</svg>